<svg width="412" height="892" viewBox="0 0 412 892" fill="none" xmlns="http://www.w3.org/2000/svg">
<g clip-path="url(#clip0_27_34)">
<rect width="412" height="892" fill="#F3F6FD"/>
<path d="M-24.0961 645.712C-42.6248 630.569 -54.3655 615.597 -30.6549 586.586C10.667 536.025 128.338 500.386 146.867 515.529C173.319 537.147 130.174 587.913 96.8431 612.288C24.6256 665.1 -5.56737 660.856 -24.0961 645.712Z" fill="#CEEAFC"/>
<path d="M116.467 892.418C152.72 869.346 207.869 702.434 120.823 714.069C-19.5364 723.194 14.1475 512.621 -85.1414 489.865" stroke="black" stroke-opacity="0.28" stroke-width="3"/>
<path d="M379.658 313.025C413.021 398.854 358.595 480.013 303.752 468.709C154.248 461.58 141.464 371.306 -31.1046 328.632L-73.9693 192.682C-32.1817 123.306 -10.7087 93.6062 68.4545 79.7585C176.844 80.1648 360.007 94.934 225.541 150.761C91.0752 206.588 354.178 247.474 379.658 313.025Z" fill="#FFC0C0" fill-opacity="0.25"/>
<path d="M298.237 -38.9057C275.427 51.4765 330.242 100.696 344.631 65.8327C356.995 35.874 400.807 64.5223 405.807 59.6083" stroke="black" stroke-opacity="0.3" stroke-width="3"/>
<path d="M52.425 188C51.375 188 50.85 187.475 50.85 186.425V156.8C50.85 155.75 51.375 155.225 52.425 155.225C53.475 155.225 54 155.75 54 156.8V184.85H68.75C69.8 184.85 70.325 185.375 70.325 186.425C70.325 187.475 69.8 188 68.75 188H52.425ZM84.9586 188C81.7753 188 79.4336 187.25 77.9336 185.75C76.4336 184.25 75.6836 181.925 75.6836 178.775V173.075C75.6836 169.858 76.4336 167.508 77.9336 166.025C79.4336 164.525 81.7753 163.783 84.9586 163.8H89.0586C92.2586 163.8 94.6003 164.55 96.0836 166.05C97.5836 167.533 98.3336 169.875 98.3336 173.075V178.725C98.3336 181.908 97.5836 184.25 96.0836 185.75C94.6003 187.25 92.2586 188 89.0586 188H84.9586ZM78.8336 178.775C78.8336 181.058 79.2753 182.642 80.1586 183.525C81.0586 184.408 82.6586 184.85 84.9586 184.85H89.0586C91.3753 184.85 92.9753 184.408 93.8586 183.525C94.7419 182.625 95.1836 181.025 95.1836 178.725V173.075C95.1836 170.758 94.7419 169.158 93.8586 168.275C92.9753 167.392 91.3753 166.95 89.0586 166.95H84.9586C83.4253 166.933 82.2086 167.117 81.3086 167.5C80.4253 167.867 79.7919 168.5 79.4086 169.4C79.0253 170.283 78.8336 171.508 78.8336 173.075V178.775ZM113.023 198C111.039 198 109.514 197.592 108.448 196.775C107.381 195.958 106.723 194.7 106.473 193C106.406 192.467 106.506 192.05 106.773 191.75C107.056 191.467 107.464 191.325 107.998 191.325C108.498 191.325 108.864 191.45 109.098 191.7C109.331 191.967 109.506 192.358 109.623 192.875C109.773 193.625 110.106 194.142 110.623 194.425C111.139 194.708 111.939 194.85 113.023 194.85H122.323C123.723 194.85 124.656 194.608 125.123 194.125C125.606 193.642 125.848 192.708 125.848 191.325V184.6C125.048 185.717 123.956 186.567 122.573 187.15C121.206 187.717 119.523 188 117.523 188H115.623C112.439 188 110.098 187.25 108.598 185.75C107.098 184.25 106.348 181.925 106.348 178.775V173.075C106.348 169.858 107.089 167.508 108.573 166.025C110.073 164.542 112.423 163.8 115.623 163.8H119.723C121.206 163.8 122.448 164.008 123.448 164.425C124.448 164.825 125.248 165.45 125.848 166.3V165.375C125.848 164.325 126.373 163.8 127.423 163.8C128.473 163.8 128.998 164.325 128.998 165.375V191.325C128.998 193.608 128.456 195.292 127.373 196.375C126.306 197.458 124.623 198 122.323 198H113.023ZM115.623 184.85H117.523C119.989 184.85 121.989 184.483 123.523 183.75C125.073 183.017 125.848 181.9 125.848 180.4V171.5C125.848 169.8 125.331 168.617 124.298 167.95C123.281 167.283 121.756 166.95 119.723 166.95H115.623C113.323 166.95 111.723 167.383 110.823 168.25C109.939 169.117 109.498 170.725 109.498 173.075V178.775C109.498 181.042 109.939 182.625 110.823 183.525C111.723 184.408 113.323 184.85 115.623 184.85ZM139.179 159.4C137.879 159.4 137.229 158.742 137.229 157.425V156.175C137.229 154.892 137.879 154.25 139.179 154.25H140.404C141.654 154.25 142.279 154.892 142.279 156.175V157.425C142.279 158.742 141.654 159.4 140.404 159.4H139.179ZM139.779 188C138.729 188 138.204 187.475 138.204 186.425V165.375C138.204 164.325 138.729 163.8 139.779 163.8C140.829 163.8 141.354 164.325 141.354 165.375V186.425C141.354 187.475 140.829 188 139.779 188ZM152.62 188C151.57 188 151.045 187.475 151.045 186.425V165.375C151.045 164.325 151.57 163.8 152.62 163.8C153.67 163.8 154.195 164.325 154.195 165.375V167.225C155.845 164.942 158.62 163.8 162.52 163.8H163.92C167.12 163.8 169.462 164.55 170.945 166.05C172.445 167.533 173.195 169.875 173.195 173.075V186.425C173.195 187.475 172.67 188 171.62 188C170.57 188 170.045 187.475 170.045 186.425V173.075C170.045 170.758 169.595 169.158 168.695 168.275C167.812 167.392 166.22 166.95 163.92 166.95H162.52C160.137 166.95 158.204 167.3 156.72 168C155.237 168.7 154.395 169.792 154.195 171.275V186.425C154.195 187.475 153.67 188 152.62 188Z" fill="black"/>
<path d="M284.688 650.616C253.16 617.971 285.626 616.846 305.8 620.363C326.775 620.363 428.547 683.683 476.811 715.343L500.739 756.149L531 846.908H428.253C346.055 849.722 270.144 787.575 242.463 756.149C180.768 700.334 88.3419 601.086 212.202 650.616C336.062 700.147 312.134 671.254 284.688 650.616Z" fill="#9487FA" fill-opacity="0.51"/>
</g>
<defs>
<clipPath id="clip0_27_34">
<rect width="412" height="892" fill="white"/>
</clipPath>
</defs>
</svg>
